<svg width="97" height="133" viewBox="0 0 97 133" fill="none" xmlns="http://www.w3.org/2000/svg">
<path d="M61.174 64.1306L60.8171 10.4503C60.8171 10.4503 59.925 2.08603 52.1 3.08245C44.275 4.07886 43.9642 10.7992 44.0384 22.1186" stroke="black" stroke-width="6" stroke-miterlimit="10" stroke-linecap="round" stroke-linejoin="round"/>
<path d="M77.3198 64.3232L77.0291 21.9003C77.0291 21.9003 77.0732 10.4625 68.6487 10.9998C60.2243 11.5371 60.8919 21.5273 60.8919 21.5273" stroke="black" stroke-width="6" stroke-miterlimit="10" stroke-linecap="round" stroke-linejoin="round"/>
<path d="M28.4026 73.0298L28.0598 21.2622C28.0598 21.2622 27.3541 11.9135 36.2697 12.6794C45.1854 13.4452 44.0386 22.1183 44.0386 22.1183L44.2932 64.8179" stroke="black" stroke-width="6" stroke-miterlimit="10" stroke-linecap="round" stroke-linejoin="round"/>
<path d="M48.6917 97.7762C48.6917 97.7762 49.7503 75.8249 29.6495 75.8249L18.0133 51.7565C18.0133 51.7565 14.3604 45.5254 7.69826 48.3182C-0.501642 51.7565 4.52456 62.3362 4.52456 62.3362L24.6253 111C24.6253 111 24.8078 111.678 25.2408 112.773C28.5048 121.011 35.9127 126.887 44.658 128.314C53.2408 129.716 68.3354 130.764 80.4408 124.092C94.2483 116.484 93.9997 98.8367 93.9997 98.8367L93.6328 38.2156C93.6328 38.2156 95.2688 22.5556 85.9401 22.0805C76.6115 21.6053 77.1167 35.2625 77.1167 35.2625" stroke="black" stroke-width="6" stroke-miterlimit="10" stroke-linecap="round" stroke-linejoin="round"/>
</svg>
