<svg width="100" height="100" viewBox="0 0 100 100" fill="none" xmlns="http://www.w3.org/2000/svg">
<circle cx="50" cy="50" r="50" fill="black"/>
<path fill-rule="evenodd" clip-rule="evenodd" d="M67.2593 36.0719L69.7186 34.0224C65.1187 28.5086 58.1961 25 50.454 25C43.5662 25 37.3271 27.7769 32.795 32.2723L27.9574 28.5341L26 31.0672L72.9514 67.3478L74.9087 64.8147L58.2403 51.9346C58.3821 51.3382 58.4571 50.716 58.4571 50.0763C58.4571 45.6563 54.874 42.0732 50.454 42.0732C49.0941 42.0732 47.8134 42.4124 46.6919 43.0108L42.2371 39.5685C44.5019 37.795 47.3545 36.7378 50.454 36.7378C54.5721 36.7378 58.2544 38.6041 60.7011 41.537L63.1604 39.4876C60.1265 35.8508 55.5605 33.5366 50.454 33.5366C46.3195 33.5366 42.5393 35.0536 39.6397 37.5614L35.3534 34.2493C39.2797 30.5022 44.5981 28.2012 50.454 28.2012C57.2077 28.2012 63.2466 31.2619 67.2593 36.0719ZM49.6979 45.3336L55.2337 49.6113C54.9998 47.1775 52.9491 45.2745 50.454 45.2745C50.1968 45.2745 49.9442 45.2947 49.6979 45.3336ZM33.6487 64.0807L31.1894 66.1301C35.7892 71.644 42.7119 75.1526 50.454 75.1526C57.4813 75.1526 63.8335 72.262 68.3864 67.6049L65.8335 65.6322C61.8821 69.5391 56.4498 71.9514 50.454 71.9514C43.7002 71.9514 37.6613 68.8907 33.6487 64.0807ZM45.6522 50.0763L45.6523 50.0377L42.7751 47.8143C42.5641 48.5316 42.451 49.2907 42.451 50.0763C42.451 54.4963 46.0341 58.0794 50.454 58.0794C51.9631 58.0794 53.3746 57.6617 54.5792 56.9357L51.7039 54.7139C51.3054 54.821 50.8864 54.8781 50.454 54.8781C47.8021 54.8781 45.6522 52.7283 45.6522 50.0763ZM50.454 63.4148C53.6957 63.4148 56.6674 62.2583 58.9789 60.3354L61.5617 62.3313C58.626 64.9938 54.7294 66.616 50.454 66.616C45.3475 66.616 40.7815 64.3018 37.7475 60.665L40.2068 58.6156C42.6536 61.5485 46.3358 63.4148 50.454 63.4148Z" fill="white"/>
</svg>
