<svg width="156" height="158" viewBox="0 0 156 158" fill="none" xmlns="http://www.w3.org/2000/svg">
<g clip-path="url(#clip0)">
<path d="M78 0C24.9754 0 0 25.2828 0 78.999C0 132.715 24.9754 157.998 78 157.998C131.025 157.998 156 132.715 156 78.999C156 25.2828 131.025 0 78 0Z" fill="#00AFE0"/>
<path d="M116.962 106.587H39.269L54.6385 83.6865H101.592L116.962 106.587Z" fill="white" stroke="black" stroke-width="4" stroke-linecap="round" stroke-linejoin="round"/>
<path d="M65.7814 51.257C72.544 44.4944 83.5331 44.4176 90.2957 51.1801L90.3725 51.257C93.677 54.5614 95.4444 59.0186 95.4444 63.6294C95.4444 66.857 94.3686 70.6225 92.6011 74.5417C90.7568 78.4609 88.6819 82.2265 86.2228 85.7614C83.9173 89.2196 81.5351 92.2935 79.7676 94.4452C79.076 95.2905 78.4612 96.059 78.0001 96.5969C77.539 96.059 76.9242 95.2905 76.2326 94.4452C74.4651 92.2935 72.1597 89.2196 69.7775 85.7614C67.3183 82.2265 65.2435 78.4609 63.3991 74.5417C61.7853 70.6225 60.7095 66.857 60.7095 63.6294C60.7095 58.9417 62.5538 54.5614 65.7814 51.257Z" fill="#B0F4FF" stroke="black" stroke-width="4" stroke-linecap="round" stroke-linejoin="round"/>
<path d="M78.0768 68.7014C81.4297 68.7014 84.1477 65.9834 84.1477 62.6305C84.1477 59.2776 81.4297 56.5596 78.0768 56.5596C74.7239 56.5596 72.0059 59.2776 72.0059 62.6305C72.0059 65.9834 74.7239 68.7014 78.0768 68.7014Z" stroke="black" stroke-width="4"/>
<path d="M40.8828 43.0342L114.733 116.884" stroke="black" stroke-width="4.68" stroke-linecap="round" stroke-linejoin="round"/>
<path d="M77.6157 133.407C107.586 133.407 131.87 109.123 131.87 79.1526C131.87 49.1822 107.586 24.8984 77.6157 24.8984C47.6453 24.8984 23.2847 49.1822 23.3615 79.1526C23.4384 109.123 47.6453 133.407 77.6157 133.407Z" stroke="black" stroke-width="4.68" stroke-linecap="round" stroke-linejoin="round"/>
</g>
<defs>
<clipPath id="clip0">
<rect width="156" height="157.998" fill="white"/>
</clipPath>
</defs>
</svg>
