<svg width="100" height="100" viewBox="0 0 100 100" fill="none" xmlns="http://www.w3.org/2000/svg">
<circle cx="50" cy="50" r="50" fill="black"/>
<path d="M24.3987 42.5586C24.3987 49.9138 27.5672 56.5295 32.6149 61.1172L35.2126 58.2621C30.9415 54.3801 28.2604 48.7822 28.2604 42.5586C28.2604 41.2019 28.3878 39.8749 28.6313 38.589L25.2678 35.9919C24.701 38.0849 24.3987 40.2865 24.3987 42.5586Z" fill="white"/>
<path d="M39.5421 53.5034C36.7325 50.9499 34.9101 47.331 34.7142 43.2856L39.4853 46.9694C40.1069 48.3762 41.0166 49.6274 42.1398 50.6483L39.5421 53.5034Z" fill="white"/>
<path d="M36.5971 35.3028C37.3778 33.9197 38.3747 32.6748 39.5421 31.6138L42.1398 34.469C41.1382 35.3793 40.3064 36.4728 39.6973 37.6964L44.4838 41.3922C45.0126 39.1126 47.0577 37.4137 49.4999 37.4137C52.3436 37.4137 54.6489 39.7172 54.6489 42.5586C54.6489 44.5361 53.5323 46.253 51.8948 47.1142L56.6797 50.8087C58.9846 48.8043 60.4415 45.8515 60.4415 42.5586C60.4415 39.3525 59.0603 36.4688 56.8601 34.469L59.4578 31.6138C62.4346 34.3194 64.3032 38.221 64.3032 42.5586C64.3032 46.7378 62.5686 50.5121 59.7796 53.2021L64.9102 57.1634C68.523 53.3588 70.7395 48.2173 70.7395 42.5586C70.7395 36.335 68.0584 30.7371 63.7873 26.8552L66.385 24C71.1917 28.3688 74.2944 34.5766 74.5797 41.5106L74.4983 44.8451C73.9879 50.4885 71.6067 55.5924 67.9792 59.5331L79 68.0423L76.6387 71.0956L20 27.3645L22.3612 24.3112L28.3973 28.9716C29.5837 27.1357 31.0035 25.4645 32.6149 24L35.2126 26.8552C33.7678 28.1683 32.505 29.6777 31.4664 31.3413L36.5971 35.3028Z" fill="white"/>
<path d="M47.5691 76V53.2109L51.4308 56.1926V76H47.5691Z" fill="white"/>
</svg>
