<svg width="156" height="158" viewBox="0 0 156 158" fill="none" xmlns="http://www.w3.org/2000/svg">
<path d="M78 0C24.96 0 0 25.28 0 79C0 132.72 24.96 158 78 158C131.04 158 156 132.72 156 79C156 25.28 131.04 0 78 0Z" fill="#00B2E3"/>
<circle cx="77.5" cy="88.5" r="6.5" fill="white"/>
<rect x="75" y="93" width="5" height="14" fill="white"/>
<mask id="path-4-inside-1" fill="white">
<path fill-rule="evenodd" clip-rule="evenodd" d="M77.9273 28C63.0462 28 50.9826 40.0635 50.9826 54.9446V67.5179H48C44.6863 67.5179 42 70.2042 42 73.5179V119C42 122.313 44.6863 125 48 125H107.852C111.166 125 113.852 122.313 113.852 119V73.5179C113.852 70.2042 111.166 67.5179 107.852 67.5179H104.872V54.9446C104.872 40.0635 92.8084 28 77.9273 28ZM90.5005 67.5179V54.9444C90.5005 47.9999 84.8709 42.3702 77.9264 42.3702C70.9819 42.3702 65.3522 47.9999 65.3522 54.9444V67.5179H90.5005Z"/>
</mask>
<path d="M50.9826 67.5179V70.5179H53.9826V67.5179H50.9826ZM104.872 67.5179H101.872V70.5179H104.872V67.5179ZM90.5005 67.5179V70.5179H93.5005V67.5179H90.5005ZM65.3522 67.5179H62.3522V70.5179H65.3522V67.5179ZM53.9826 54.9446C53.9826 41.7204 64.703 31 77.9273 31V25C61.3893 25 47.9826 38.4066 47.9826 54.9446H53.9826ZM53.9826 67.5179V54.9446H47.9826V67.5179H53.9826ZM48 70.5179H50.9826V64.5179H48V70.5179ZM45 73.5179C45 71.861 46.3431 70.5179 48 70.5179V64.5179C43.0294 64.5179 39 68.5473 39 73.5179H45ZM45 119V73.5179H39V119H45ZM48 122C46.3431 122 45 120.657 45 119H39C39 123.97 43.0294 128 48 128V122ZM107.852 122H48V128H107.852V122ZM110.852 119C110.852 120.657 109.509 122 107.852 122V128C112.823 128 116.852 123.97 116.852 119H110.852ZM110.852 73.5179V119H116.852V73.5179H110.852ZM107.852 70.5179C109.509 70.5179 110.852 71.861 110.852 73.5179H116.852C116.852 68.5473 112.823 64.5179 107.852 64.5179V70.5179ZM104.872 70.5179H107.852V64.5179H104.872V70.5179ZM101.872 54.9446V67.5179H107.872V54.9446H101.872ZM77.9273 31C91.1515 31 101.872 41.7204 101.872 54.9446H107.872C107.872 38.4067 94.4652 25 77.9273 25V31ZM93.5005 67.5179V54.9444H87.5005V67.5179H93.5005ZM93.5005 54.9444C93.5005 46.343 86.5277 39.3702 77.9264 39.3702V45.3702C83.214 45.3702 87.5005 49.6567 87.5005 54.9444H93.5005ZM77.9264 39.3702C69.325 39.3702 62.3522 46.343 62.3522 54.9444H68.3522C68.3522 49.6567 72.6387 45.3702 77.9264 45.3702V39.3702ZM62.3522 54.9444V67.5179H68.3522V54.9444H62.3522ZM65.3522 70.5179H90.5005V64.5179H65.3522V70.5179Z" fill="black" mask="url(#path-4-inside-1)"/>
<mask id="path-6-inside-2" fill="white">
<path fill-rule="evenodd" clip-rule="evenodd" d="M81.943 95.9923C84.5224 94.5004 86.2578 91.7117 86.2578 88.5176C86.2578 83.752 82.3945 79.8887 77.6289 79.8887C72.8633 79.8887 69 83.752 69 88.5176C69 91.7113 70.7351 94.4998 73.3141 95.9919V106.09C73.3141 108.299 75.1049 110.09 77.3141 110.09H77.943C80.1521 110.09 81.943 108.299 81.943 106.09V95.9923Z"/>
</mask>
<path d="M81.943 95.9923L80.4409 93.3954L78.943 94.2618V95.9923H81.943ZM73.3141 95.9919H76.3141V94.2616L74.8164 93.3951L73.3141 95.9919ZM83.2578 88.5176C83.2578 90.5974 82.1314 92.4177 80.4409 93.3954L83.445 98.5892C86.9134 96.5831 89.2578 92.8259 89.2578 88.5176H83.2578ZM77.6289 82.8887C80.7377 82.8887 83.2578 85.4088 83.2578 88.5176H89.2578C89.2578 82.0951 84.0514 76.8887 77.6289 76.8887V82.8887ZM72 88.5176C72 85.4088 74.5201 82.8887 77.6289 82.8887V76.8887C71.2064 76.8887 66 82.0951 66 88.5176H72ZM74.8164 93.3951C73.1262 92.4173 72 90.5972 72 88.5176H66C66 92.8255 68.344 96.5824 71.8117 98.5886L74.8164 93.3951ZM76.3141 106.09V95.9919H70.3141V106.09H76.3141ZM77.3141 107.09C76.7618 107.09 76.3141 106.643 76.3141 106.09H70.3141C70.3141 109.956 73.4481 113.09 77.3141 113.09V107.09ZM77.943 107.09H77.3141V113.09H77.943V107.09ZM78.943 106.09C78.943 106.643 78.4952 107.09 77.943 107.09V113.09C81.809 113.09 84.943 109.956 84.943 106.09H78.943ZM78.943 95.9923V106.09H84.943V95.9923H78.943Z" fill="black" mask="url(#path-6-inside-2)"/>
<path d="M51.5 69H105" stroke="black" stroke-width="3"/>
</svg>
