<svg width="136" height="55" viewBox="0 0 136 55" fill="none" xmlns="http://www.w3.org/2000/svg">
<path d="M21.8333 21.8474C17.0431 21.8474 14.2778 24.7349 14.2778 29.2877C14.2778 33.8405 17.028 36.7127 21.8182 36.7127C26.6084 36.7127 29.3737 33.8252 29.3737 29.2724C29.3737 24.7044 26.6235 21.8474 21.8333 21.8474ZM21.8333 33.8099C19.1285 33.8099 17.5418 32.0377 17.5418 29.2571C17.5418 26.4766 19.0982 24.7196 21.8182 24.7196C24.5231 24.7196 26.1097 26.4919 26.1097 29.2724C26.1097 32.053 24.5533 33.8099 21.8333 33.8099Z" fill="black"/>
<path d="M38.4336 36.4475V30.0768C38.4336 28.5949 37.7385 27.8463 36.5599 27.8463C35.3812 27.8463 34.6256 28.6102 34.6256 30.0768V36.4475H31.543V25.4478H34.6256V27.0061C35.3359 26.0894 36.2425 25.2339 37.8141 25.2339C40.1412 25.2339 41.5012 26.7922 41.5012 29.313V36.4322H38.4336V36.4475Z" fill="black"/>
<path d="M47.3957 32.819C47.3957 33.5371 47.713 33.8885 48.4534 33.8885C49.0579 33.8885 49.5868 33.751 50.0703 33.4913V35.9968C49.4206 36.394 48.665 36.6385 47.6374 36.6385C45.7486 36.6385 44.4641 35.8746 44.4641 33.3385V28.0065H43.1646V25.4552H44.4641V22.644H47.3957V25.4552H50.0552V28.0065H47.3957V32.819V32.819Z" fill="black"/>
<path d="M56.6846 25.3667C54.8411 25.3667 53.6624 25.7181 52.4686 26.2528L53.1788 28.4834C54.1762 28.1167 55.1131 27.857 56.2917 27.857C57.8331 27.857 58.7095 28.6056 58.7095 29.9042V30.057C57.9388 29.8431 57.0322 29.7209 55.9442 29.7209C53.3602 29.7209 51.5317 30.8667 51.5317 33.3417V33.3875C51.5317 35.557 53.2091 36.7028 55.2642 36.7028C56.7753 36.7028 57.8482 36.1681 58.634 35.3889V36.4889H61.5353V30.1028C61.5353 27.1236 60.0544 25.3667 56.6846 25.3667ZM58.6793 32.5625C58.6793 33.6931 57.682 34.5181 56.2313 34.5181C55.234 34.5181 54.5237 34.0292 54.5237 33.1889V33.1431C54.5237 32.1653 55.37 31.6306 56.6846 31.6306C57.4402 31.6306 58.1504 31.7681 58.6793 31.982V32.5625Z" fill="black"/>
<path d="M70.2203 28.0494C68.1654 28.0494 66.9717 29.2716 66.9717 31.8993V36.4521H63.9497V25.4521H66.9717V27.6674C67.6063 26.1549 68.5582 25.1619 70.3865 25.2382V28.0494H70.2203Z" fill="black"/>
<path d="M75.3666 21.449V24.2143H72.1177V21.449H75.3666L75.3061 21.5101L75.3666 21.449ZM75.2306 25.4976L75.291 25.4365H72.2083V36.4365H75.291V25.4365L75.2306 25.4976Z" fill="black"/>
<path d="M83.2571 25.2344C79.57 25.2344 77.3638 27.4497 77.3638 30.9788C77.3638 34.4927 79.5549 36.6927 83.242 36.6927C86.9442 36.6927 89.1504 34.4774 89.1504 30.9635C89.1353 27.4191 86.9442 25.2344 83.2571 25.2344ZM83.2571 34.0191C81.4589 34.0191 80.4162 32.8122 80.4162 30.9483C80.4162 29.0844 81.4135 27.8927 83.242 27.8927C85.0553 27.8927 86.098 29.0997 86.098 30.9635C86.0829 32.8274 85.0855 34.0191 83.2571 34.0191Z" fill="black"/>
<path d="M108.096 13.7461C98.8481 13.7461 94.4961 18.1461 94.4961 27.4961C94.4961 36.8461 98.8481 41.2461 108.096 41.2461C117.344 41.2461 121.696 36.8461 121.696 27.4961C121.696 18.1461 117.344 13.7461 108.096 13.7461Z" fill="black"/>
<path d="M108.109 21.9449C106.446 20.7838 104.618 20.3254 102.956 20.3254C101.55 20.3254 100.205 20.6615 99.0117 21.2421C99.2384 24.1601 100.886 27.2462 104.165 28.8503C103.998 30.8822 104.512 32.7155 105.343 34.1669C106.054 35.4044 107.006 36.4127 108.109 37.1613C110.496 35.5113 112.325 32.5016 112.053 28.835C113.881 27.9642 115.196 26.5892 116.027 25.1379C116.737 23.9004 117.115 22.556 117.221 21.2268C114.591 19.9588 111.116 19.8671 108.109 21.9449ZM114.365 24.1754C113.488 25.7184 112.113 26.8184 110.572 27.3837C109.786 27.6739 108.804 27.6892 108.139 26.9559C108.003 27.8114 108.094 28.6059 108.562 29.0795C108.758 29.2781 109.046 29.4309 109.318 29.4767C109.635 29.5378 109.877 29.5531 110.164 29.492C110.164 31.5544 109.378 33.3266 108.094 34.6558C107.686 34.228 107.293 33.7391 106.99 33.1891C106.099 31.6461 105.857 29.9045 106.144 28.2698C106.295 27.4448 106.764 26.574 107.716 26.3448C107.051 25.7948 106.326 25.474 105.691 25.6573C105.419 25.7337 105.147 25.9017 104.966 26.1156C104.754 26.3753 104.633 26.5587 104.527 26.849C102.759 25.8254 101.626 24.2365 101.142 22.4643C101.717 22.3115 102.336 22.2199 102.956 22.2199C104.724 22.2199 106.341 22.8768 107.595 23.9309C108.23 24.4657 108.728 25.3212 108.456 26.2684C109.257 25.9629 109.892 25.4893 110.058 24.8323C110.118 24.5573 110.118 24.2212 110.028 23.9768C109.922 23.6559 109.816 23.4573 109.62 23.2129C111.388 22.174 113.307 21.9754 115.075 22.4337C114.909 23.0448 114.682 23.6254 114.365 24.1754Z" fill="white"/>
</svg>
